<?xml version="1.0" encoding="UTF-8"?>
<svg version="1.1" xmlns="http://www.w3.org/2000/svg" width="290" height="174">
<path d="M0 0 C95.7 0 191.4 0 290 0 C290 57.42 290 114.84 290 174 C194.3 174 98.6 174 0 174 C0 116.58 0 59.16 0 0 Z " fill="#FEFEFE" transform="translate(0,0)"/>
<path d="M0 0 C95.7 0 191.4 0 290 0 C290 57.42 290 114.84 290 174 C261.29 174 232.58 174 203 174 C203 173.67 203 173.34 203 173 C203.54527344 172.85304687 204.09054688 172.70609375 204.65234375 172.5546875 C214.3179707 169.67978307 221.90409104 164.85839945 227 156 C229.93145151 148.84592702 230.43317848 142.02905497 230.38818359 134.375 C230.39344055 133.25818848 230.39869751 132.14137695 230.40411377 130.99072266 C230.41723534 127.32700295 230.40860321 123.66372355 230.3984375 120 C230.40046048 117.43749916 230.40337378 114.87499888 230.40713501 112.3125 C230.41154777 106.9530636 230.40545074 101.59378261 230.39111328 96.234375 C230.37479028 90.06197122 230.38008014 83.88986485 230.3965925 77.71746826 C230.41191229 71.74912065 230.41020764 65.78086442 230.4014473 59.8125 C230.3994531 57.2864579 230.40187699 54.76040816 230.40888596 52.234375 C230.41654671 48.69771525 230.40483085 45.1616181 230.38818359 41.625 C230.39729263 40.07546631 230.39729263 40.07546631 230.40658569 38.49462891 C230.31898155 28.39428791 228.15618799 20.98640605 222 13 C222 12.34 222 11.68 222 11 C221.34 11 220.68 11 220 11 C220 10.34 220 9.68 220 9 C217.22788276 7.60139786 214.44440046 6.23838126 211.625 4.9375 C210.53058594 4.42509766 210.53058594 4.42509766 209.4140625 3.90234375 C203.18590884 1.57434456 196.73130192 1.85180152 190.18041992 1.85473633 C188.56219078 1.84969841 188.56219078 1.84969841 186.91127014 1.84455872 C183.35099124 1.83507332 179.79075949 1.83310679 176.23046875 1.83203125 C173.74953695 1.82881694 171.26860535 1.82545274 168.78767395 1.82194519 C163.58850668 1.81595992 158.38935602 1.81410467 153.19018555 1.81469727 C146.53915877 1.81479884 139.88827629 1.80114868 133.2372694 1.78392506 C128.1130576 1.77278797 122.98887149 1.77077859 117.86464882 1.77130699 C115.41313623 1.77012938 112.96162293 1.76571991 110.5101223 1.75797462 C107.07592736 1.74814064 103.64196259 1.75106639 100.20776367 1.75708008 C99.20226471 1.75146057 98.19676575 1.74584106 97.16079712 1.74005127 C84.92090464 1.79431703 77.78398348 4.26884738 68.8125 12.8125 C60.27787421 21.53934709 59.8516703 30.20744719 59.83886719 41.97143555 C59.83390228 43.06654953 59.82893738 44.16166351 59.82382202 45.28996277 C59.809242 48.90555454 59.80240499 52.52110243 59.796875 56.13671875 C59.79111975 58.65769959 59.78536206 61.17868043 59.77960205 63.69966125 C59.77044387 68.3099115 59.76413903 72.92014866 59.7611053 77.5304057 C59.75663132 84.28989424 59.73910718 91.0491799 59.7101047 97.8086068 C59.68577241 103.68615576 59.67815561 109.56363779 59.67642975 115.44123268 C59.6734131 117.93017493 59.66541817 120.41911653 59.65224457 122.90802574 C59.63508544 126.39936837 59.63708869 129.89022347 59.64355469 133.3815918 C59.6343399 134.39860168 59.62512512 135.41561157 59.6156311 136.46343994 C59.67515916 146.78531446 61.45410215 156.50342174 69 164 C74.46683717 168.52995924 80.17635929 171.16100463 87 173 C87 173.33 87 173.66 87 174 C58.29 174 29.58 174 0 174 C0 116.58 0 59.16 0 0 Z " fill="#FEFEFE" transform="translate(0,0)"/>
<path d="M0 0 C37.29 0 74.58 0 113 0 C113 7.26 113 14.52 113 22 C101.84659938 22.09062988 90.69344624 22.1639052 79.53975964 22.20724869 C74.35978115 22.22805897 69.18006925 22.25625603 64.00024414 22.30175781 C58.99463113 22.34545044 53.98927337 22.36918635 48.98348427 22.37950897 C47.08064065 22.3868585 45.17780986 22.40120973 43.27507591 22.42292023 C29.56062748 22.57307783 17.47359601 22.01623374 7 12 C3.56339165 8.11318095 1.27028301 5.08113203 0 0 Z " fill="#84BEE2" transform="translate(61,152)"/>
<path d="M0 0 C3.58623586 1.33441334 5.37765809 3.16830397 7.3125 6.375 C10.13055856 12.60923568 10.1954859 19.95324825 8.26953125 26.47265625 C6.36282042 30.63629011 4.10677893 33.8097179 0 36 C-4.74746558 36.6530905 -7.95590048 36.69606634 -12 34 C-12 38.62 -12 43.24 -12 48 C-18.435 48.495 -18.435 48.495 -25 49 C-25 33.16 -25 17.32 -25 1 C-21.37 1 -17.74 1 -14 1 C-13.34 1.66 -12.68 2.32 -12 3 C-11.319375 2.505 -10.63875 2.01 -9.9375 1.5 C-6.29752475 -0.35871077 -4.04537127 -0.43343264 0 0 Z " fill="#513D54" transform="translate(136,70)"/>
<path d="M0 0 C18.15 0 36.3 0 55 0 C51.68149426 9.95551723 45.79707956 15.12163727 36.61328125 19.90625 C31.79914193 21.92113641 27.3553722 22.12050825 22.16796875 22.09765625 C20.87568359 22.09443359 19.58339844 22.09121094 18.25195312 22.08789062 C16.89713474 22.07953665 15.54231703 22.07107172 14.1875 22.0625 C12.81315265 22.05748 11.43880355 22.05291797 10.06445312 22.04882812 C6.70961659 22.03705677 3.3548027 22.01912174 0 22 C0 14.74 0 7.48 0 0 Z " fill="#FED166" transform="translate(174,152)"/>
<path d="M0 0 C18.15 0 36.3 0 55 0 C55 6.93 55 13.86 55 21 C51.07059314 21.09275977 47.14403882 21.17209685 43.21411133 21.21972656 C41.23427092 21.24930134 39.25478499 21.30017533 37.27539062 21.3515625 C25.60366896 21.46975715 15.62392614 19.26616501 7 11 C3.99578822 7.54318863 1.45587983 4.3676395 0 0 Z " fill="#29B692" transform="translate(61,153)"/>
<path d="M0 0 C3.67580378 2.82754137 5.14967867 5.83534866 5.80151367 10.45458984 C6.02852993 13.47113508 6.15717085 16.47642181 6.25 19.5 C6.32637695 21.05460937 6.32637695 21.05460937 6.40429688 22.640625 C6.72393477 31.02705653 6.72393477 31.02705653 4.4375 34.875 C1.6557043 34.39812074 -0.57372032 33.86952667 -3.125 32.625 C-3.929375 32.3775 -4.73375 32.13 -5.5625 31.875 C-6.42875 32.555625 -6.42875 32.555625 -7.3125 33.25 C-10.34756904 35.44199431 -12.62632597 35.41394576 -16.3046875 35.3046875 C-20.13816358 34.57513323 -21.90130525 32.66925449 -24.5625 29.875 C-26.13705739 26.72588521 -25.91049118 24.35491184 -25.5625 20.875 C-23.42790837 17.10958037 -20.60220744 14.44843677 -16.5625 12.875 C-13.984375 12.6796875 -13.984375 12.6796875 -11.3125 12.75 C-10.42046875 12.76804687 -9.5284375 12.78609375 -8.609375 12.8046875 C-7.59617188 12.83949219 -7.59617188 12.83949219 -6.5625 12.875 C-7.2225 11.555 -7.8825 10.235 -8.5625 8.875 C-12.5225 8.875 -16.4825 8.875 -20.5625 8.875 C-22.5625 3.875 -22.5625 3.875 -22.5625 0.875 C-15.25250027 -1.78318172 -7.46887322 -2.35859154 0 0 Z " fill="#4D3951" transform="translate(208.5625,71.125)"/>
<path d="M0 0 C2.5242483 2.01939864 2.94833532 2.84500596 4 6 C4.37576548 9.61524318 4.51231278 13.24512072 4.6875 16.875 C4.74744141 17.86886719 4.80738281 18.86273438 4.86914062 19.88671875 C4.91619141 20.84964844 4.96324219 21.81257813 5.01171875 22.8046875 C5.05772217 23.68108887 5.10372559 24.55749023 5.15112305 25.46044922 C4.98077182 28.32312035 4.19083093 30.4076952 3 33 C-0.71888239 32.49287967 -3.73454239 31.88391785 -7 30 C-7.474375 30.495 -7.94875 30.99 -8.4375 31.5 C-12.23119616 33.72070019 -15.70329773 33.56777851 -20 33 C-22.93038162 31.7530291 -24.41759241 30.77654345 -26.3125 28.25 C-27.32815881 24.9260257 -27.41796486 22.46313738 -27 19 C-24.84967845 15.23907904 -22.04614179 12.57594291 -18 11 C-15.421875 10.8046875 -15.421875 10.8046875 -12.75 10.875 C-11.85796875 10.89304687 -10.9659375 10.91109375 -10.046875 10.9296875 C-9.03367187 10.96449219 -9.03367187 10.96449219 -8 11 C-8.66 9.68 -9.32 8.36 -10 7 C-13.96 7 -17.92 7 -22 7 C-24 3 -24 3 -24 -1 C-15.28126726 -3.26041219 -8.22505809 -4.35444252 0 0 Z " fill="#4C3850" transform="translate(102,73)"/>
<path d="M0 0 C2.75329021 1.79562405 4.52627461 3.05254922 6 6 C6.08559118 8.17824961 6.10713412 10.35915255 6.09765625 12.5390625 C6.09443359 13.84101562 6.09121094 15.14296875 6.08789062 16.484375 C6.07953466 17.86458399 6.07106971 19.24479232 6.0625 20.625 C6.05748501 22.01301926 6.0529221 23.40104022 6.04882812 24.7890625 C6.03700976 28.19275132 6.02053434 31.59635439 6 35 C2.04 35 -1.92 35 -6 35 C-6.495 22.13 -6.495 22.13 -7 9 C-12.11046929 11.27924257 -12.11046929 11.27924257 -12.65942383 14.4519043 C-12.67513428 15.39976807 -12.69084473 16.34763184 -12.70703125 17.32421875 C-12.73603516 18.35224609 -12.76503906 19.38027344 -12.79492188 20.43945312 C-12.80072266 21.51130859 -12.80652344 22.58316406 -12.8125 23.6875 C-12.83763672 24.77095703 -12.86277344 25.85441406 -12.88867188 26.97070312 C-12.9476155 29.64674359 -12.9766515 32.32341229 -13 35 C-16.96 35 -20.92 35 -25 35 C-25 24.11 -25 13.22 -25 2 C-21.37 2 -17.74 2 -14 2 C-14 2.66 -14 3.32 -14 4 C-12.4840625 3.01 -12.4840625 3.01 -10.9375 2 C-7.14997015 -0.14244113 -4.38648295 -0.64984933 0 0 Z " fill="#4B374F" transform="translate(174,70)"/>
<path d="M0 0 C4.55555556 0.55555556 4.55555556 0.55555556 6 2 C6.12557162 4.30993382 6.17575729 6.62418536 6.1875 8.9375 C6.20167969 10.20464844 6.21585938 11.47179687 6.23046875 12.77734375 C6 16 6 16 4 18 C1.4375 18.1875 1.4375 18.1875 -1 18 C-2.98119355 16.01880645 -2.18500411 12.26554936 -2.1875 9.5625 C-2.19974609 8.86833984 -2.21199219 8.17417969 -2.22460938 7.45898438 C-2.22989842 5.63779099 -2.12169207 3.8171308 -2 2 C-1.34 1.34 -0.68 0.68 0 0 Z " fill="#F7F6F7" transform="translate(126,79)"/>
<path d="M0 0 C18.15 0 36.3 0 55 0 C54.67 0.99 54.34 1.98 54 3 C36.18 2.67 18.36 2.34 0 2 C0 1.34 0 0.68 0 0 Z " fill="#FED67C" transform="translate(174,152)"/>
<path d="M0 0 C0.04254356 1.99954746 0.04080783 4.00041636 0 6 C-1 7 -1 7 -3.5625 7.0625 C-4.7690625 7.0315625 -4.7690625 7.0315625 -6 7 C-6.33 5.35 -6.66 3.7 -7 2 C-4 0 -4 0 0 0 Z " fill="#E5E3E6" transform="translate(202,90)"/>
<path d="M0 0 C0.04254356 1.99954746 0.04080783 4.00041636 0 6 C-1 7 -1 7 -3.5625 7.0625 C-4.7690625 7.0315625 -4.7690625 7.0315625 -6 7 C-6.33 5.35 -6.66 3.7 -7 2 C-4 0 -4 0 0 0 Z " fill="#E4E2E5" transform="translate(94,90)"/>
<path d="M0 0 C0.66 0.33 1.32 0.66 2 1 C-1.96 4.96 -5.92 8.92 -10 13 C-10 9.28115772 -9.1259934 8.63852271 -6.6875 5.9375 C-5.76517578 4.89916016 -5.76517578 4.89916016 -4.82421875 3.83984375 C-3 2 -3 2 0 0 Z " fill="#ECECEC" transform="translate(74,5)"/>
</svg>
