<?xml version="1.0" encoding="UTF-8"?>
<svg version="1.1" xmlns="http://www.w3.org/2000/svg" width="128" height="128">
<path d="M0 0 C42.24 0 84.48 0 128 0 C128 42.24 128 84.48 128 128 C85.76 128 43.52 128 0 128 C0 85.76 0 43.52 0 0 Z " fill="#FDFCFB" transform="translate(0,0)"/>
<path d="M0 0 C5.69061781 4.03324933 8.97485975 9.75741757 10.3125 16.5625 C12.44886798 35.17942099 3.74116425 53.45612064 -7.33227539 67.84643555 C-13.10897409 75.08950747 -19.17035971 81.10347492 -26.6875 86.5625 C-27.34621094 87.15417969 -28.00492188 87.74585937 -28.68359375 88.35546875 C-30.6875 89.5625 -30.6875 89.5625 -33.4375 89.25 C-34.18 89.023125 -34.9225 88.79625 -35.6875 88.5625 C-36.98620325 71.55910743 -31.87342869 56.77451943 -25.6015625 41.17578125 C-24.36905525 37.65207464 -24.0345457 35.23536792 -24.6875 31.5625 C-28.04430706 29.32462863 -29.92934643 29.10205295 -33.890625 29.6328125 C-40.23544933 31.74184628 -45.51273929 36.43403683 -50.6875 40.5625 C-51.55890625 41.24828125 -52.4303125 41.9340625 -53.328125 42.640625 C-57.83706024 46.25980148 -57.83706024 46.25980148 -59.6875 51.5625 C-58.65625 51.0675 -57.625 50.5725 -56.5625 50.0625 C-53.14869292 48.60141827 -50.43291645 48.12698646 -46.6875 48.5625 C-44.6875 50.5625 -44.6875 50.5625 -44.5 53.5546875 C-45.195285 67.95288102 -48.13712976 85.187059 -57.6875 96.5625 C-60.88784383 99.38368663 -63.17704457 100.15510711 -67.53515625 99.9765625 C-74.15249958 98.70353456 -78.97969145 93.90610643 -82.6875 88.5625 C-87.3817884 77.30952497 -85.62345442 63.67487882 -81.37817383 52.57055664 C-76.70684022 41.30596172 -69.73468726 31.67117007 -61.6875 22.5625 C-61.09839844 21.87800781 -60.50929688 21.19351563 -59.90234375 20.48828125 C-46.46386682 5.92746998 -19.88243799 -10.77711729 0 0 Z " fill="#AD2A2F" transform="translate(101.6875,15.4375)"/>
<path d="M0 0 C5.69061781 4.03324933 8.97485975 9.75741757 10.3125 16.5625 C12.44886798 35.17942099 3.74116425 53.45612064 -7.33227539 67.84643555 C-13.10897409 75.08950747 -19.17035971 81.10347492 -26.6875 86.5625 C-27.34621094 87.15417969 -28.00492187 87.74585937 -28.68359375 88.35546875 C-30.6875 89.5625 -30.6875 89.5625 -33.4375 89.25 C-34.18 89.023125 -34.9225 88.79625 -35.6875 88.5625 C-36.89147773 72.79931012 -32.77355558 58.85916943 -26.8125 44.375 C-24.6005367 38.96169684 -24.09838797 34.36198066 -24.6875 28.5625 C-25.3475 28.2325 -26.0075 27.9025 -26.6875 27.5625 C-31.24305556 24.00694444 -31.24305556 24.00694444 -32.6875 22.5625 C-33.34881807 17.05151612 -32.30874784 14.2876811 -29.07421875 10.04296875 C-27.6875 8.5625 -27.6875 8.5625 -24.6875 6.5625 C-25.0175 5.2425 -25.3475 3.9225 -25.6875 2.5625 C-27.0075 2.5625 -28.3275 2.5625 -29.6875 2.5625 C-29.3575 1.5725 -29.0275 0.5825 -28.6875 -0.4375 C-19.86126996 -3.75714942 -8.46135654 -4.58641098 0 0 Z " fill="#AE2B2F" transform="translate(101.6875,15.4375)"/>
<path d="M0 0 C0 3 0 3 -1 5 C-1.66 5 -2.32 5 -3 5 C-3.26039062 5.55171875 -3.52078125 6.1034375 -3.7890625 6.671875 C-5.16436085 9.315997 -6.74326026 11.75607463 -8.375 14.25 C-15.94207168 26.11868504 -20.60423891 37.59749954 -19 52 C-17.48206026 58.07175897 -15.53975473 62.67614716 -10 66 C-9.071875 66.5878125 -9.071875 66.5878125 -8.125 67.1875 C-5.14271573 68.32778516 -2.15930439 68.63546488 1 69 C2 72 2 72 0.92578125 74.375 C0.39339844 75.24125 -0.13898437 76.1075 -0.6875 77 C-1.20699219 77.86625 -1.72648437 78.7325 -2.26171875 79.625 C-4.01540425 82.02104671 -5.46360893 83.47523311 -8 85 C-13.91121201 85.7881616 -17.29914069 84.88947456 -22.17578125 81.48828125 C-27.29776621 77.30953121 -30.40035184 72.70995322 -31.25341797 66.00952148 C-32.81173985 44.0461445 -24.22834779 27.09834034 -10.25390625 10.5234375 C-6.98278416 6.86114137 -3.55774735 3.38325293 0 0 Z " fill="#F4821E" transform="translate(48,30)"/>
<path d="M0 0 C1.6227693 4.8683079 -0.89045682 8.51108836 -3 13 C-10.18108171 27.28237363 -20.09698145 39.57740093 -33 49 C-33.70640625 49.57878906 -34.4128125 50.15757813 -35.140625 50.75390625 C-37 52 -37 52 -39.75 51.6875 C-40.4925 51.460625 -41.235 51.23375 -42 51 C-42.86886565 45.96057924 -42.86886565 45.96057924 -42 43 C-38.98527622 40.43324722 -35.49606612 38.82577915 -32 37 C-29.21528548 35.14011728 -26.60742895 33.09928827 -24 31 C-22.95585938 30.19369141 -22.95585938 30.19369141 -21.890625 29.37109375 C-16.89541953 25.27041976 -13.00514152 20.67391731 -9.1875 15.5 C-8.50337036 14.57489624 -8.50337036 14.57489624 -7.80541992 13.63110352 C-4.69317426 9.28588785 -2.29126356 4.8282104 0 0 Z " fill="#EB8027" transform="translate(108,53)"/>
<path d="M0 0 C1 1 1 1 1.3125 4.1875 C0.85165039 9.80986523 -1.464776 12.64754076 -5.625 16.3125 C-9.60802941 19.14254721 -12.09540708 19.26274605 -17 19 C-19 17 -19 17 -19.4375 13.8125 C-18.80833115 8.32974291 -16.5720744 5.13219469 -12.35546875 1.63671875 C-8.00645603 -1.22008193 -4.93511862 -1.28313084 0 0 Z " fill="#FBEFEB" transform="translate(88,21)"/>
<path d="M0 0 C0.33 0.66 0.66 1.32 1 2 C0.0625 4.625 0.0625 4.625 -1 7 C-1.66 7 -2.32 7 -3 7 C-2.938125 7.66 -2.87625 8.32 -2.8125 9 C-2.98562226 11.7699562 -3.40591805 13.24616032 -4.4375 15.75 C-6.18830706 20.15179322 -6.74278588 24.28976638 -7 29 C-7.04125 29.75539063 -7.0825 30.51078125 -7.125 31.2890625 C-7.26903335 36.52827577 -6.74134916 41.0371549 -5 46 C-3.13252737 47.39238047 -3.13252737 47.39238047 -1 48 C0.75 49.4375 0.75 49.4375 2 51 C2 51.99 2 52.98 2 54 C-2.05849062 52.49685533 -4.73802583 49.60069358 -7 46 C-12.20621763 33.63978403 -9.37996657 19.42910013 -4.60546875 7.44140625 C-3.27879827 4.59761867 -2.0212483 2.37329755 0 0 Z " fill="#DC822C" transform="translate(26,58)"/>
<path d="M0 0 C0 3 0 3 -1 5 C-1.66 5 -2.32 5 -3 5 C-3.40605469 5.84304687 -3.40605469 5.84304687 -3.8203125 6.703125 C-5.06825943 9.13290247 -6.41775705 11.43955263 -7.875 13.75 C-8.36742187 14.54921875 -8.85984375 15.3484375 -9.3671875 16.171875 C-9.90601563 16.77515625 -10.44484375 17.3784375 -11 18 C-12.32 18 -13.64 18 -15 18 C-15.28875 18.763125 -15.5775 19.52625 -15.875 20.3125 C-17 23 -17 23 -19 26 C-19.66 25.67 -20.32 25.34 -21 25 C-15.00329308 15.74910741 -7.84651125 7.71573606 0 0 Z " fill="#E4863F" transform="translate(48,30)"/>
<path d="M0 0 C0.66 0 1.32 0 2 0 C1.69255859 1.01320313 1.69255859 1.01320313 1.37890625 2.046875 C1.10949219 2.93890625 0.84007812 3.8309375 0.5625 4.75 C0.29566406 5.63171875 0.02882813 6.5134375 -0.24609375 7.421875 C-0.49488281 8.27265625 -0.74367188 9.1234375 -1 10 C-1.17853516 10.61037109 -1.35707031 11.22074219 -1.54101562 11.84960938 C-2.06108025 14.28616746 -2.11284488 16.49343991 -2.09765625 18.984375 C-2.09443359 19.91894531 -2.09121094 20.85351562 -2.08789062 21.81640625 C-2.07951172 22.78449219 -2.07113281 23.75257812 -2.0625 24.75 C-2.05798828 25.73355469 -2.05347656 26.71710938 -2.04882812 27.73046875 C-2.03706483 30.15370791 -2.02062684 32.57682273 -2 35 C-2.66 35 -3.32 35 -4 35 C-7.54485656 27.91028689 -5.1251356 15.35425713 -3 8 C-2.08830055 5.2826909 -1.08236655 2.6567179 0 0 Z " fill="#FEE5C3" transform="translate(20,65)"/>
<path d="M0 0 C1.61789038 4.85367113 -0.87091314 8.53250594 -3 13 C-5.23405587 17.06235373 -7.58099713 21.045338 -10 25 C-10.66 23.68 -11.32 22.36 -12 21 C-11.01 21 -10.02 21 -9 21 C-8.95875 20.05125 -8.9175 19.1025 -8.875 18.125 C-8.25110331 13.55286157 -5.92632787 10.16024127 -3.47265625 6.33203125 C-2.16796972 4.26598919 -1.04886731 2.20414145 0 0 Z " fill="#E38730" transform="translate(108,53)"/>
<path d="M0 0 C0.99 0 1.98 0 3 0 C-1.125 12.69230769 -1.125 12.69230769 -4 18 C-7 12 -7 12 -6.8125 10.125 C-5.76677402 7.39002436 -4.08872976 6.02543492 -2 4 C-0.76487921 1.86690808 -0.76487921 1.86690808 0 0 Z " fill="#F27C2D" transform="translate(33,48)"/>
<path d="M0 0 C0.66 0.33 1.32 0.66 2 1 C2.625 3.5625 2.625 3.5625 3 6 C3.99 6.33 4.98 6.66 6 7 C4.56445975 7.50559908 3.1264798 8.0042749 1.6875 8.5 C0.88699219 8.7784375 0.08648437 9.056875 -0.73828125 9.34375 C-3 10 -3 10 -6 10 C-5.58578031 5.16743695 -3.53586014 3.17320782 0 0 Z " fill="#FCEDEF" transform="translate(48,57)"/>
<path d="M0 0 C0 0.99 0 1.98 0 3 C-1.32 3.33 -2.64 3.66 -4 4 C-3.67 4.99 -3.34 5.98 -3 7 C-4.98 7 -6.96 7 -9 7 C-9 5.02 -9 3.04 -9 1 C-6.04335481 -0.4783226 -3.25770263 -0.06032783 0 0 Z " fill="#F6811D" transform="translate(76,96)"/>
<path d="M0 0 C1.010625 0.474375 2.02125 0.94875 3.0625 1.4375 C6.65922205 2.9936328 10.09268709 3.6012946 14 4 C14.33 4.99 14.66 5.98 15 7 C14.67 7.66 14.34 8.32 14 9 C13.34 9 12.68 9 12 9 C12 8.01 12 7.02 12 6 C8.37 6 4.74 6 1 6 C0.67 4.02 0.34 2.04 0 0 Z " fill="#EF7A34" transform="translate(35,95)"/>
<path d="M0 0 C0.2578125 2.296875 0.2578125 2.296875 0 5 C-4.06445042 9.08251464 -9.22285496 11.70373615 -15 12 C-12.32484806 9.18836072 -9.37474402 6.77007393 -6.375 4.3125 C-5.39273438 3.50425781 -4.41046875 2.69601563 -3.3984375 1.86328125 C-1 0 -1 0 0 0 Z " fill="#F57C29" transform="translate(91,79)"/>
<path d="M0 0 C0.66 0 1.32 0 2 0 C2.3690205 12.66970387 2.3690205 12.66970387 0 18 C-0.33 18 -0.66 18 -1 18 C-1.22181406 15.56304285 -1.42791119 13.126474 -1.625 10.6875 C-1.68945312 9.99720703 -1.75390625 9.30691406 -1.8203125 8.59570312 C-2.11802847 4.7440028 -2.20763723 3.31145584 0 0 Z " fill="#A93537" transform="translate(110,32)"/>
<path d="M0 0 C0.33 0.66 0.66 1.32 1 2 C0.0625 4.625 0.0625 4.625 -1 7 C-1.66 7 -2.32 7 -3 7 C-2.96132813 7.71929687 -2.92265625 8.43859375 -2.8828125 9.1796875 C-3.01018973 12.24523288 -3.69395261 14.30600367 -4.875 17.125 C-5.22304688 17.97320312 -5.57109375 18.82140625 -5.9296875 19.6953125 C-7 22 -7 22 -9 25 C-8.48322766 16.21487016 -5.68246334 6.84554063 0 0 Z " fill="#DD8D3F" transform="translate(26,58)"/>
<path d="M0 0 C1.10505337 3.3151601 0.96706816 5.52430522 0.8125 9 C0.7296882 15.7077554 2.27270231 20.92445737 5 27 C1.125 26.125 1.125 26.125 0 25 C-1.23734314 18.12587142 -3.17750432 6.35500865 0 0 Z " fill="#EC7530" transform="translate(28,66)"/>
<path d="M0 0 C1.23784389 4.95137556 1.93248343 9.66879142 0 14.5 C-0.33 14.995 -0.66 15.49 -1 16 C-1.99 16 -2.98 16 -4 16 C-2.68 10.72 -1.36 5.44 0 0 Z " fill="#F7DDD5" transform="translate(55,82)"/>
<path d="M0 0 C1.0625 1.8125 1.0625 1.8125 2 4 C1 7 1 7 -1 8 C-1.474375 8.804375 -1.94875 9.60875 -2.4375 10.4375 C-4 13 -4 13 -7 15 C-5.63408831 11.45756548 -4.09068516 8.07372071 -2.375 4.6875 C-1.70597656 3.36298828 -1.70597656 3.36298828 -1.0234375 2.01171875 C-0.68570313 1.34785156 -0.34796875 0.68398438 0 0 Z " fill="#FEF1CF" transform="translate(106,62)"/>
<path d="M0 0 C1.53166168 4.08443115 0.63081652 7.79455657 0 12 C-0.99 12 -1.98 12 -3 12 C-3.33 13.32 -3.66 14.64 -4 16 C-5.27710684 12.16867948 -4.44164418 10.64332645 -3.125 6.875 C-2.75632812 5.79992188 -2.38765625 4.72484375 -2.0078125 3.6171875 C-1 1 -1 1 0 0 Z " fill="#9F3838" transform="translate(76,57)"/>
<path d="M0 0 C-3.3 2.31 -6.6 4.62 -10 7 C-11 4 -11 4 -10.375 1.875 C-9 0 -9 0 -6.625 -0.8125 C-4 -1 -4 -1 0 0 Z " fill="#FAEEDE" transform="translate(58,24)"/>
<path d="M0 0 C1.65 0.99 3.3 1.98 5 3 C3.35 4.65 1.7 6.3 0 8 C-0.99 7.34 -1.98 6.68 -3 6 C-3 3 -3 3 -1.5 1.3125 C-0.7575 0.6628125 -0.7575 0.6628125 0 0 Z " fill="#EC8937" transform="translate(83,87)"/>
<path d="M0 0 C4 3 8 6 12 9 C10.56206608 8.68950274 9.1246682 8.3765224 7.6875 8.0625 C6.88699219 7.88847656 6.08648437 7.71445313 5.26171875 7.53515625 C3 7 3 7 0 6 C0 4.02 0 2.04 0 0 Z " fill="#FDEDCA" transform="translate(20,106)"/>
<path d="M0 0 C3.3 1.65 6.6 3.3 10 5 C9.34 6.32 8.68 7.64 8 9 C5.36 8.34 2.72 7.68 0 7 C0.33 5.68 0.66 4.36 1 3 C0.67 2.01 0.34 1.02 0 0 Z " fill="#9C2229" transform="translate(68,37)"/>
<path d="M0 0 C1.2153691 3.64610731 0.65387751 4.63565227 -0.75 8.125 C-1.09546875 9.01445313 -1.4409375 9.90390625 -1.796875 10.8203125 C-3 13 -3 13 -6 14 C-5.41892368 10.2397015 -4.34800504 7.46964968 -2.4375 4.1875 C-1.98246094 3.39730469 -1.52742188 2.60710938 -1.05859375 1.79296875 C-0.53458984 0.90544922 -0.53458984 0.90544922 0 0 Z " fill="#E08046" transform="translate(108,53)"/>
<path d="M0 0 C-1 1.5 -1 1.5 -3 3 C-5.79873829 3.39491399 -8.13817454 3.227129 -11 3 C-11.66 2.34 -12.32 1.68 -13 1 C-8.60563789 0.14256349 -4.47427924 -0.08948558 0 0 Z " fill="#E58535" transform="translate(43,112)"/>
<path d="M0 0 C0.33 0 0.66 0 1 0 C1.20674944 5.78898419 0.59162079 10.42932723 -1 16 C-1.33 16 -1.66 16 -2 16 C-2.05449838 14.27119018 -2.09301688 12.54187288 -2.125 10.8125 C-2.14820312 9.84957031 -2.17140625 8.88664062 -2.1953125 7.89453125 C-1.9913544 4.87187222 -1.26874632 2.73230015 0 0 Z " fill="#AC2D1E" transform="translate(30,64)"/>
<path d="M0 0 C0.33 0 0.66 0 1 0 C1 4.29 1 8.58 1 13 C0.01 13.495 0.01 13.495 -1 14 C-2.33500455 8.65998179 -1.512545 5.16044765 0 0 Z " fill="#F6D9C7" transform="translate(111,44)"/>
<path d="M0 0 C0.66 0 1.32 0 2 0 C2 0.66 2 1.32 2 2 C3.32 2 4.64 2 6 2 C6 2.99 6 3.98 6 5 C6.99 5.33 7.98 5.66 9 6 C5.86650268 7.04449911 5.01031744 6.93423645 2 6 C2 5.34 2 4.68 2 4 C1.34 3.67 0.68 3.34 0 3 C0 2.01 0 1.02 0 0 Z " fill="#B0323F" transform="translate(70,16)"/>
<path d="M0 0 C0.33 0 0.66 0 1 0 C1 1.65 1 3.3 1 5 C2.32 5.33 3.64 5.66 5 6 C3.02 6.99 1.04 7.98 -1 9 C-1.09765625 2.84765625 -1.09765625 2.84765625 -1 1 C-0.67 0.67 -0.34 0.34 0 0 Z " fill="#AB3328" transform="translate(67,87)"/>
<path d="M0 0 C0.66 0 1.32 0 2 0 C1.54636829 1.58468677 1.08688548 3.16769924 0.625 4.75 C0.36976562 5.63171875 0.11453125 6.5134375 -0.1484375 7.421875 C-0.9209934 9.76080572 -1.83625676 11.83442562 -3 14 C-3.40652968 8.57960425 -2.03993514 4.92984325 0 0 Z " fill="#FFF0D2" transform="translate(20,65)"/>
<path d="M0 0 C5.28 0 10.56 0 16 0 C16 0.99 16 1.98 16 3 C10.72 2.34 5.44 1.68 0 1 C0 0.67 0 0.34 0 0 Z " fill="#F8CCC5" transform="translate(84,12)"/>
<path d="M0 0 C0.33 0.99 0.66 1.98 1 3 C-1.31 4.65 -3.62 6.3 -6 8 C-6.66 7.67 -7.32 7.34 -8 7 C-5.36 4.69 -2.72 2.38 0 0 Z " fill="#FDE9C4" transform="translate(86,92)"/>
<path d="M0 0 C0.33 0.99 0.66 1.98 1 3 C3.01508358 3.73323796 3.01508358 3.73323796 5 4 C2.35261084 5.4606285 1.10551666 6 -2 6 C-1.125 1.125 -1.125 1.125 0 0 Z " fill="#FAD4D4" transform="translate(44,61)"/>
<path d="M0 0 C0.99 0 1.98 0 3 0 C2.67 1.65 2.34 3.3 2 5 C0.68 5 -0.64 5 -2 5 C-1.125 1.125 -1.125 1.125 0 0 Z " fill="#F4FEF2" transform="translate(75,25)"/>
<path d="M0 0 C0 3 0 3 -1.125 5.125 C-3.60144222 7.60144222 -5.58060399 7.69605369 -9 8 C-6.21751321 5.06293061 -3.12061789 2.56584137 0 0 Z " fill="#EB742F" transform="translate(85,83)"/>
<path d="M0 0 C3 1.8125 3 1.8125 6 4 C6 4.99 6 5.98 6 7 C5.01 7 4.02 7 3 7 C0 2.77777778 0 2.77777778 0 0 Z " fill="#EA862C" transform="translate(22,104)"/>
<path d="M0 0 C0.66 0 1.32 0 2 0 C2.33 0.99 2.66 1.98 3 3 C1.02 4.32 -0.96 5.64 -3 7 C-3.33 6.01 -3.66 5.02 -4 4 C-2.68 3.67 -1.36 3.34 0 3 C0 2.01 0 1.02 0 0 Z " fill="#E68833" transform="translate(76,96)"/>
<path d="M0 0 C0.66 0 1.32 0 2 0 C1.44894091 3.9492568 0.61064629 7.34920174 -1 11 C-2.60080151 6.99799622 -1.29279692 3.95443764 0 0 Z " fill="#E5954B" transform="translate(19,72)"/>
<path d="M0 0 C1 2 1 2 0.44140625 3.9453125 C0.15136719 4.66460937 -0.13867188 5.38390625 -0.4375 6.125 C-0.72496094 6.84945312 -1.01242188 7.57390625 -1.30859375 8.3203125 C-1.53675781 8.87460937 -1.76492187 9.42890625 -2 10 C-2.66 9.67 -3.32 9.34 -4 9 C-2.94124926 5.59687262 -1.99097846 2.98646769 0 0 Z " fill="#B6331F" transform="translate(35,51)"/>
<path d="M0 0 C-0.25 2.375 -0.25 2.375 -1 5 C-3.0625 6.3125 -3.0625 6.3125 -5 7 C-5 5.02 -5 3.04 -5 1 C-2 0 -2 0 0 0 Z " fill="#A52A38" transform="translate(71,17)"/>
<path d="M0 0 C0.33 0.99 0.66 1.98 1 3 C0.01 3.66 -0.98 4.32 -2 5 C-4.6875 4.125 -4.6875 4.125 -7 3 C-7 2.67 -7 2.34 -7 2 C-4.69 1.34 -2.38 0.68 0 0 Z " fill="#AA2F39" transform="translate(80,38)"/>
<path d="M0 0 C0 3 0 3 -1 5 C-1.66 5 -2.32 5 -3 5 C-3.33 5.99 -3.66 6.98 -4 8 C-4.99 7.67 -5.98 7.34 -7 7 C-4.69 4.69 -2.38 2.38 0 0 Z " fill="#D58050" transform="translate(48,30)"/>
<path d="M0 0 C0.99 0 1.98 0 3 0 C3.33 1.65 3.66 3.3 4 5 C3.01 5.33 2.02 5.66 1 6 C0.67 4.02 0.34 2.04 0 0 Z " fill="#FC8115" transform="translate(19,78)"/>
<path d="M0 0 C1.32 0.33 2.64 0.66 4 1 C-0.75 5 -0.75 5 -3 5 C-3.33 4.01 -3.66 3.02 -4 2 C-2.68 2 -1.36 2 0 2 C0 1.34 0 0.68 0 0 Z " fill="#A23032" transform="translate(52,51)"/>
</svg>
